<?xml version="1.0" encoding="utf-8"?>
<!-- Generator: Adobe Illustrator 21.0.0, SVG Export Plug-In . SVG Version: 6.00 Build 0)  -->
<svg version="1.1" id="Layer_1" xmlns="http://www.w3.org/2000/svg" xmlns:xlink="http://www.w3.org/1999/xlink" x="0px" y="0px"
	 viewBox="0 0 39.7 42.3" style="enable-background:new 0 0 39.7 42.3;" xml:space="preserve">
<style type="text/css">
	.st0{fill:#E12727;}
	.st1{fill:#E65D42;}
	.st2{fill:#CC2322;}
	.st3{fill:#39B54A;}
	.st4{fill:#33A544;}
</style>
<g>
	<g>
		<g>
			<path class="st0" d="M0.8,42.1c-1.1-0.1-1.1-1.6-0.1-1.9c5.1-1.2,11-4.2,14.3-6.7c3.9-2.9,6.1-7.7,7.7-11.7
				c1-2.5,2.5-8.4,3.6-10.9c1.4-3.5,6.3-7.9,11.6-3.2c3.4,3,1.3,10.2,0.1,13c-3.4,7.9-9.9,16.9-18.7,19.4C11.2,42.5,5,42.6,0.8,42.1
				z"/>
		</g>
		<g>
			<g>
				<path class="st1" d="M19,33.8c3.4-2.8,6.4-6.9,8.4-11.7c0.5-1.3,1.2-3.4,1.8-5.6c0.6-2,1.2-4.2,1.8-5.3c1.3-3,2.5-3.5,2.5-3.5
					c-2.6-0.2-4.7,2.4-5.4,4.1c-0.5,1.2-1.1,3.3-1.8,5.3c-0.7,2.2-1.3,4.2-1.8,5.6C20.2,34,10.8,37.7,8.5,38.3
					C12,37.8,15.8,36.3,19,33.8z"/>
			</g>
		</g>
		<g>
			<path class="st2" d="M38,20.8c1.2-2.8,3.3-10-0.1-13c-1.4-1.3-2.9-1.9-4.2-2h0c4.3,1.3,2.4,10.3-1,17.3
				C26.8,35.1,13.1,42.5,0,41.3c0,0.4,0.3,0.8,0.8,0.8c4.2,0.5,10.3,0.3,18.4-2C28,37.7,34.6,28.7,38,20.8z"/>
		</g>
	</g>
	<path class="st3" d="M36.6,10.2c0,0-0.3-1.1-1.1-1.6c-0.8-0.5-1.1-1.4-1.1-1.4c0.1,1.8-3.2,2-3.2,2s0.5-0.5,0.4-1.4
		c-0.1-1,0.3-1.2,0.3-1.2s0,0-1.3,0.1c-1.3,0.1-2.1-0.6-2.1-0.6s0.6,0.1,1.6-0.2c1.5-0.5,2.4-1,4.4-0.9c1.7,0.1,4.1,1.6,4.9,4.3
		c-0.2-0.4-1-0.4-1.7-0.7c-0.4-0.2-1-0.8-1-0.8S37.3,8.7,36.6,10.2z"/>
	<path class="st4" d="M39.4,9.2C38.7,6.7,36.7,5.3,35,5l0,0c0,0-0.4-1.6,0.9-2.9C36.8,1.2,37.5,1,37.5,1s0.5-0.7-0.6-1
		c-3.2,1.2-2.7,4.9-2.7,4.9c0,0,0,0,0,0c0.8,2.3-1.9,3.2-1.9,3.2s-0.5-0.7-0.3-1.5c0,0-0.1,0.1-0.2,0.2c-0.1,0.2-0.2,0.5-0.1,1
		c0.1,1-0.4,1.4-0.4,1.4s3.3-0.2,3.2-2c0,0,0.3,0.9,1.1,1.4c0.8,0.5,1.1,1.6,1.1,1.6c0.6-1.5,0.2-2.5,0.2-2.5s0.5,0.6,1,0.8
		C38.5,8.8,39.2,8.8,39.4,9.2z"/>
</g>
</svg>
